<?xml version="1.0" standalone="no"?>
<!DOCTYPE svg PUBLIC "-//W3C//DTD SVG 20010904//EN"
 "http://www.w3.org/TR/2001/REC-SVG-20010904/DTD/svg10.dtd">
<svg version="1.0" xmlns="http://www.w3.org/2000/svg"
 width="256.000000pt" height="89.000000pt" viewBox="0 0 256.000000 89.000000"
 preserveAspectRatio="xMidYMid meet">

<g transform="translate(0.000000,89.000000) scale(0.100000,-0.100000)"
fill="#000000" stroke="none">
<path d="M226 733 c-3 -43 -4 -168 -1 -278 2 -110 5 -205 5 -211 0 -7 58 -37
129 -67 l129 -56 116 62 116 62 0 283 0 282 -244 0 -243 0 -7 -77z"/>
<path d="M2042 678 c-7 -7 -12 -24 -12 -39 0 -16 -7 -29 -17 -34 -17 -6 -17
-7 0 -16 14 -8 17 -25 17 -99 0 -53 4 -90 10 -90 6 0 10 37 10 91 0 82 2 91
20 96 26 7 26 23 -1 23 -31 0 -23 54 9 58 12 2 20 8 17 13 -9 13 -39 11 -53
-3z"/>
<path d="M2130 540 c0 -87 4 -140 10 -140 6 0 10 53 10 140 0 87 -4 140 -10
140 -6 0 -10 -53 -10 -140z"/>
<path d="M960 601 c0 -25 -13 -27 -30 -6 -8 9 -30 15 -57 15 -62 0 -103 -40
-103 -100 0 -82 82 -125 160 -85 27 14 30 14 30 0 0 -8 5 -15 10 -15 6 0 10
40 10 99 0 56 -4 103 -10 106 -5 3 -10 -3 -10 -14z m-29 -30 c20 -20 29 -39
29 -61 0 -34 -46 -90 -74 -90 -35 0 -68 22 -82 55 -12 31 -12 39 0 70 25 59
82 71 127 26z"/>
<path d="M1006 595 c-9 -24 -7 -158 3 -173 12 -20 21 9 21 73 0 69 7 84 44
101 20 8 24 13 13 14 -10 0 -28 -5 -39 -11 -15 -8 -22 -8 -28 1 -5 8 -9 7 -14
-5z"/>
<path d="M1119 581 c-23 -23 -29 -38 -29 -71 0 -82 82 -125 160 -85 27 14 30
14 30 0 0 -8 5 -15 10 -15 6 0 10 40 10 100 0 60 -4 100 -10 100 -5 0 -10 -7
-10 -16 0 -15 -2 -15 -25 0 -13 9 -43 16 -65 16 -33 0 -48 -6 -71 -29z m132
-10 c20 -20 29 -39 29 -61 0 -34 -46 -90 -74 -90 -35 0 -68 22 -82 55 -12 31
-12 39 0 70 25 59 82 71 127 26z"/>
<path d="M1371 596 c-54 -30 -66 -97 -25 -145 32 -38 81 -49 125 -27 40 20 39
20 39 -4 0 -11 4 -20 9 -20 11 0 18 90 13 161 -2 27 -8 49 -13 49 -5 0 -9 -7
-9 -16 0 -14 -2 -14 -22 0 -27 19 -84 20 -117 2z m92 -8 c53 -28 64 -92 22
-133 -50 -51 -135 -17 -135 53 1 40 13 62 45 80 26 15 41 15 68 0z"/>
<path d="M1601 596 c-49 -27 -64 -86 -34 -136 33 -57 113 -68 164 -22 68 61
23 173 -69 172 -20 -1 -48 -7 -61 -14z m117 -32 c31 -36 29 -79 -7 -115 -32
-31 -50 -35 -84 -17 -34 17 -46 39 -47 80 0 29 7 42 32 63 37 31 71 28 106
-11z"/>
<path d="M1788 560 c-6 -62 2 -150 13 -150 5 0 9 27 9 60 0 109 56 164 110
110 16 -16 20 -33 20 -95 0 -43 4 -75 10 -75 6 0 10 33 10 80 0 67 -3 83 -20
100 -24 24 -77 26 -108 4 -20 -14 -22 -14 -22 0 0 9 -4 16 -9 16 -5 0 -11 -22
-13 -50z"/>
<path d="M2187 603 c-3 -5 13 -48 35 -97 39 -88 39 -89 23 -129 -14 -35 -14
-59 0 -45 16 16 122 269 114 274 -5 3 -26 -32 -47 -77 l-38 -82 -36 81 c-37
81 -43 89 -51 75z"/>
<path d="M590 120 c-47 -21 -93 -39 -102 -39 -10 -1 -52 13 -94 29 -42 17 -78
29 -81 27 -4 -4 170 -107 181 -107 4 0 50 29 104 65 53 36 92 65 87 64 -6 0
-48 -18 -95 -39z"/>
</g>
</svg>
